# xmcd
#
# Track frame offsets:
#   150
#   17697
#   29641
#   43458
#   53537
#   66119
#   78907
#   91041
#   102869
#   113447
#   125821
#   138053
#   151135
#   164068
#
# Disc length: 2362 seconds
#
# Revision: 0
# Processed by: cddbd v1.4PL0 Copyright (c) Steve Scherf et al.
# Submitted via: uFREEDB 1.6.0
#
DISCID=ae09380e
DTITLE=Martin, Dean - For The Good Times
DYEAR=1971
DGENRE=Vocal
TTITLE0=For The Good Times
TTITLE1=Marry Me
TTITLE2=Georgia Sunshine
TTITLE3=Invisible Tears
TTITLE4=Raindrops Keep Falling On My Head
TTITLE5=A Perfect Mountain
TTITLE6=Raining In My Heart
TTITLE7=She's A Little Bit Country
TTITLE8=For Once In My Life
TTITLE9=Sweetheart
TTITLE10=Come On Down (Bonus)
TTITLE11=Down Home (Bonus)
TTITLE12=For The Love Of A Woman (Bonus)
TTITLE13=The Tracks Of My Tears (Bonus)
EXTD=
EXTT0=
EXTT1=
EXTT2=
EXTT3=
EXTT4=
EXTT5=
EXTT6=
EXTT7=
EXTT8=
EXTT9=
EXTT10=
EXTT11=
EXTT12=
EXTT13=
PLAYORDER=
